@startuml
!define table(x) class x << (T,#FFAAAA) >>
!define pk(x) <u>x</u>
!define fk(x) <i><u>x</u></i>
hide methods
hide stereotypes
skinparam shadowing false

table(User) {
  pk(id)
  email <i>@NotNull</i>
  firstName
  midName
  lastName
  address
  phone
}

table(Group) {
  pk(id)
  name <i>@NotNull</i>
  descriptions
}

table(UserNameAndPasswordCredential) {
  pk(id)
  fk(userId)
  username <i>@NotNull</i>
  password <i>@NotNull</i>
}

table(Quiz) {
  pk(id)
  name <i>@NotNull</i>
  descriptions
}

table(Question) {
  pk(id)
  fk(quizId)
  content <i>@NotNull</i>
  descriptions
  hint
  weight
  orderRelevance
}

table(QuestionOption) {
  pk(id)
  fk(questionId)
  order
  content <i>@NotNull</i>
  descriptions
  isRight
}

table(Category) {
  pk(id)
  name <i>@NotNull</i>
  descriptions
}

table(Assignment) {
  pk(id)
  fk(quizId)
  fk(groupId)
  name <i>@NotNull</i>
  descriptions
  startTime
  endTime
}

table(UserAssignment) {
  pk(id)
  fk(assignmentId)
  fk(userId)
  startTime
  finishTime
}

table(UserAssignmentAnswer) {
  pk(id)
  fk(questionId)
}

table(UserAssignmentAnswerCheck) {
  pk(id)
  fk(userAssignmentAnswer)
  fk(questionOption)
}

note right of Question: weight = trọng số (1, 2, 3, 4)
note top of Question: orderRelevance = có để ý đến order của option hay không

User }--{ Group
User <|--|> UserNameAndPasswordCredential
Quiz <|--{ Question
Question <|--{ QuestionOption
Question }--{ Category
Quiz <|--{ Assignment
Group <|--{ Assignment
User }--{ UserAssignment
Assignment <|--{ UserAssignment
UserAssignment <|--{ UserAssignmentAnswer
Question <|--{ UserAssignmentAnswer
UserAssignmentAnswer <|--{ UserAssignmentAnswerCheck
QuestionOption <|--{ UserAssignmentAnswerCheck

right footer v0.0.5

@enduml
